<?xml version="1.0" encoding="UTF-8" standalone="no"?>
<!DOCTYPE svg PUBLIC "-//W3C//DTD SVG 1.1//EN"
 "http://www.w3.org/Graphics/SVG/1.1/DTD/svg11.dtd">
<!-- Generated by graphviz version 12.1.1 (20240910.0053)
 -->
<!-- Title: INFRA Pages: 1 -->
<svg width="317pt" height="404pt"
 viewBox="0.00 0.00 317.15 404.00" xmlns="http://www.w3.org/2000/svg" xmlns:xlink="http://www.w3.org/1999/xlink">
<g id="graph0" class="graph" transform="scale(1 1) rotate(0) translate(4 400)">
<title>INFRA</title>
<polygon fill="white" stroke="none" points="-4,4 -4,-400 313.15,-400 313.15,4 -4,4"/>
<!-- BlogArtifacts -->
<g id="node1" class="node">
<title>BlogArtifacts</title>
<path fill="#fff5cd" stroke="black" stroke-width="2" d="M164.06,-65.45C164.06,-69.07 134.32,-72 97.71,-72 61.1,-72 31.36,-69.07 31.36,-65.45 31.36,-65.45 31.36,-6.55 31.36,-6.55 31.36,-2.93 61.1,0 97.71,0 134.32,0 164.06,-2.93 164.06,-6.55 164.06,-6.55 164.06,-65.45 164.06,-65.45"/>
<path fill="none" stroke="black" stroke-width="2" d="M164.06,-65.45C164.06,-61.84 134.32,-58.91 97.71,-58.91 61.1,-58.91 31.36,-61.84 31.36,-65.45"/>
<text text-anchor="middle" x="97.71" y="-40.2" font-family="Arial" font-size="14.00">BlogArtifacts</text>
<text text-anchor="middle" x="97.71" y="-23.4" font-family="Arial" font-size="14.00">(AWS::S3::Bucket)</text>
</g>
<!-- CopyArtifactsLambdaIamRole -->
<g id="node2" class="node">
<title>CopyArtifactsLambdaIamRole</title>
<path fill="#e6e6e6" stroke="black" stroke-width="2" d="M257.7,-180C257.7,-180 79.72,-180 79.72,-180 73.72,-180 67.72,-174 67.72,-168 67.72,-168 67.72,-120 67.72,-120 67.72,-114 73.72,-108 79.72,-108 79.72,-108 257.7,-108 257.7,-108 263.7,-108 269.7,-114 269.7,-120 269.7,-120 269.7,-168 269.7,-168 269.7,-174 263.7,-180 257.7,-180"/>
<text text-anchor="middle" x="168.71" y="-148.2" font-family="Arial" font-size="14.00">CopyArtifactsLambdaIamRole</text>
<text text-anchor="middle" x="168.71" y="-131.4" font-family="Arial" font-size="14.00">(AWS::IAM::Role)</text>
</g>
<!-- CopyArtifactsLambdaIamRole&#45;&gt;BlogArtifacts -->
<g id="edge1" class="edge">
<title>CopyArtifactsLambdaIamRole&#45;&gt;BlogArtifacts</title>
<path fill="none" stroke="black" d="M145.07,-107.7C139.44,-99.3 133.36,-90.23 127.5,-81.47"/>
<polygon fill="black" stroke="black" points="130.56,-79.76 122.09,-73.4 124.75,-83.66 130.56,-79.76"/>
</g>
<!-- CustomResourceCopySourceFunction -->
<g id="node3" class="node">
<title>CustomResourceCopySourceFunction</title>
<path fill="#b7e0ff" stroke="black" stroke-width="2" d="M297.15,-288C297.15,-288 66.27,-288 66.27,-288 60.27,-288 54.27,-282 54.27,-276 54.27,-276 54.27,-228 54.27,-228 54.27,-222 60.27,-216 66.27,-216 66.27,-216 297.15,-216 297.15,-216 303.15,-216 309.15,-222 309.15,-228 309.15,-228 309.15,-276 309.15,-276 309.15,-282 303.15,-288 297.15,-288"/>
<text text-anchor="middle" x="181.71" y="-256.2" font-family="Arial" font-size="14.00">CustomResourceCopySourceFunction</text>
<text text-anchor="middle" x="181.71" y="-239.4" font-family="Arial" font-size="14.00">(AWS::Lambda::Function)</text>
</g>
<!-- CustomResourceCopySourceFunction&#45;&gt;CopyArtifactsLambdaIamRole -->
<g id="edge2" class="edge">
<title>CustomResourceCopySourceFunction&#45;&gt;CopyArtifactsLambdaIamRole</title>
<path fill="none" stroke="black" d="M177.38,-215.7C176.43,-207.93 175.4,-199.57 174.4,-191.43"/>
<polygon fill="black" stroke="black" points="177.9,-191.14 173.2,-181.64 170.95,-192 177.9,-191.14"/>
</g>
<!-- CopyCfnStacksLambdaTrigger -->
<g id="node4" class="node">
<title>CopyCfnStacksLambdaTrigger</title>
<path fill="#e6e6e6" stroke="black" stroke-width="2" d="M195.42,-396C195.42,-396 12,-396 12,-396 6,-396 0,-390 0,-384 0,-384 0,-336 0,-336 0,-330 6,-324 12,-324 12,-324 195.42,-324 195.42,-324 201.42,-324 207.42,-330 207.42,-336 207.42,-336 207.42,-384 207.42,-384 207.42,-390 201.42,-396 195.42,-396"/>
<text text-anchor="middle" x="103.71" y="-364.2" font-family="Arial" font-size="14.00">CopyCfnStacksLambdaTrigger</text>
<text text-anchor="middle" x="103.71" y="-347.4" font-family="Arial" font-size="14.00">(Custom::CopyCfnResources)</text>
</g>
<!-- CopyCfnStacksLambdaTrigger&#45;&gt;BlogArtifacts -->
<g id="edge4" class="edge">
<title>CopyCfnStacksLambdaTrigger&#45;&gt;BlogArtifacts</title>
<path fill="none" stroke="black" d="M67.03,-323.71C58.36,-313.14 50.31,-300.89 45.71,-288 18.77,-212.45 34.16,-184.36 58.71,-108 61.49,-99.34 65.36,-90.52 69.59,-82.18"/>
<polygon fill="black" stroke="black" points="72.54,-84.08 74.16,-73.61 66.36,-80.79 72.54,-84.08"/>
</g>
<!-- CopyCfnStacksLambdaTrigger&#45;&gt;CustomResourceCopySourceFunction -->
<g id="edge3" class="edge">
<title>CopyCfnStacksLambdaTrigger&#45;&gt;CustomResourceCopySourceFunction</title>
<path fill="none" stroke="black" d="M129.68,-323.7C135.93,-315.21 142.69,-306.03 149.19,-297.19"/>
<polygon fill="black" stroke="black" points="151.85,-299.49 154.95,-289.36 146.21,-295.34 151.85,-299.49"/>
</g>
</g>
</svg>
